HIERARCHY
ROOT mixamorig:Hips
{
	OFFSET 0.000000 201.639420 0.000000
	CHANNELS 6 Xposition Yposition Zposition Xrotation Yrotation Zrotation
	JOINT mixamorig:Spine
	{
		OFFSET 0.006200 19.524994 -2.481800
		CHANNELS 3 Xrotation Yrotation Zrotation
		JOINT mixamorig:Spine1
		{
			OFFSET -0.000900 22.835007 -2.825400
			CHANNELS 3 Xrotation Yrotation Zrotation
			JOINT mixamorig:Spine2
			{
				OFFSET -0.020600 26.552490 -3.193300
				CHANNELS 3 Xrotation Yrotation Zrotation
				JOINT mixamorig:Neck
				{
					OFFSET -0.060000 30.701813 1.352200
					CHANNELS 3 Xrotation Yrotation Zrotation
					JOINT mixamorig:Head
					{
						OFFSET -0.087200 22.547607 3.670900
						CHANNELS 3 Xrotation Yrotation Zrotation
						JOINT mixamorig:HeadTop_End
						{
							OFFSET -0.830600 40.355194 7.893500
							CHANNELS 3 Xrotation Yrotation Zrotation
							End Site
							{
								OFFSET 0.000000 30.592346 0.000000
							}
						}
						JOINT mixamorig:RightEye
						{
							OFFSET -6.302100 18.118591 16.197100
							CHANNELS 3 Xrotation Yrotation Zrotation
							End Site
							{
								OFFSET 0.000000 30.592346 0.000000
							}
						}
						JOINT mixamorig:LeftEye
						{
							OFFSET 6.741500 18.382690 16.401899
							CHANNELS 3 Xrotation Yrotation Zrotation
							End Site
							{
								OFFSET 0.000000 30.592346 0.000000
							}
						}
					}
				}
				JOINT mixamorig:LeftShoulder
				{
					OFFSET 11.924900 18.230499 1.425400
					CHANNELS 3 Xrotation Yrotation Zrotation
					JOINT mixamorig:LeftArm
					{
						OFFSET 25.435989 -0.697632 -5.229300
						CHANNELS 3 Xrotation Yrotation Zrotation
						JOINT mixamorig:LeftForeArm
						{
							OFFSET 54.684776 0.000000 0.000000
							CHANNELS 3 Xrotation Yrotation Zrotation
							JOINT mixamorig:LeftHand
							{
								OFFSET 55.098175 0.000000 0.000000
								CHANNELS 3 Xrotation Yrotation Zrotation
								JOINT mixamorig:LeftHandMiddle1
								{
									OFFSET 23.369751 0.000000 0.000000
									CHANNELS 3 Xrotation Yrotation Zrotation
									JOINT mixamorig:LeftHandMiddle2
									{
										OFFSET 6.378677 0.000000 0.000000
										CHANNELS 3 Xrotation Yrotation Zrotation
										JOINT mixamorig:LeftHandMiddle3
										{
											OFFSET 6.148331 0.000000 0.000000
											CHANNELS 3 Xrotation Yrotation Zrotation
											JOINT mixamorig:LeftHandMiddle4
											{
												OFFSET 6.582504 0.000000 0.000000
												CHANNELS 3 Xrotation Yrotation Zrotation
												End Site
												{
													OFFSET -1.168900 6.395691 1.028606
												}
											}
										}
									}
								}
								JOINT mixamorig:LeftHandThumb1
								{
									OFFSET 7.235672 -3.848206 5.434273
									CHANNELS 3 Xrotation Yrotation Zrotation
									JOINT mixamorig:LeftHandThumb2
									{
										OFFSET 6.568451 -3.792297 3.792300
										CHANNELS 3 Xrotation Yrotation Zrotation
										JOINT mixamorig:LeftHandThumb3
										{
											OFFSET 6.063080 -3.500519 3.500518
											CHANNELS 3 Xrotation Yrotation Zrotation
											JOINT mixamorig:LeftHandThumb4
											{
												OFFSET 4.793182 -2.767334 2.767349
												CHANNELS 3 Xrotation Yrotation Zrotation
												End Site
												{
													OFFSET 0.101639 6.054260 1.275483
												}
											}
										}
									}
								}
								JOINT mixamorig:LeftHandIndex1
								{
									OFFSET 23.101074 -0.309540 4.992809
									CHANNELS 3 Xrotation Yrotation Zrotation
									JOINT mixamorig:LeftHandIndex2
									{
										OFFSET 6.226883 0.000000 0.000000
										CHANNELS 3 Xrotation Yrotation Zrotation
										JOINT mixamorig:LeftHandIndex3
										{
											OFFSET 6.094330 0.000000 0.000000
											CHANNELS 3 Xrotation Yrotation Zrotation
											JOINT mixamorig:LeftHandIndex4
											{
												OFFSET 5.482605 0.000000 0.000000
												CHANNELS 3 Xrotation Yrotation Zrotation
												End Site
												{
													OFFSET -1.427902 5.233032 0.797164
												}
											}
										}
									}
								}
								JOINT mixamorig:LeftHandRing1
								{
									OFFSET 22.299240 0.021149 -3.964172
									CHANNELS 3 Xrotation Yrotation Zrotation
									JOINT mixamorig:LeftHandRing2
									{
										OFFSET 6.321869 0.000000 0.000000
										CHANNELS 3 Xrotation Yrotation Zrotation
										JOINT mixamorig:LeftHandRing3
										{
											OFFSET 5.899796 0.000000 0.000000
											CHANNELS 3 Xrotation Yrotation Zrotation
											JOINT mixamorig:LeftHandRing4
											{
												OFFSET 6.517899 0.000000 0.000000
												CHANNELS 3 Xrotation Yrotation Zrotation
												End Site
												{
													OFFSET -1.637299 6.232208 0.980890
												}
											}
										}
									}
								}
								JOINT mixamorig:LeftHandPinky1
								{
									OFFSET 20.463791 -0.302338 -8.562233
									CHANNELS 3 Xrotation Yrotation Zrotation
									JOINT mixamorig:LeftHandPinky2
									{
										OFFSET 6.908646 0.000000 0.000000
										CHANNELS 3 Xrotation Yrotation Zrotation
										JOINT mixamorig:LeftHandPinky3
										{
											OFFSET 4.622849 0.000000 0.000000
											CHANNELS 3 Xrotation Yrotation Zrotation
											JOINT mixamorig:LeftHandPinky4
											{
												OFFSET 5.216080 0.000000 0.000000
												CHANNELS 3 Xrotation Yrotation Zrotation
												End Site
												{
													OFFSET -0.606308 5.116241 0.814926
												}
											}
										}
									}
								}
							}
						}
					}
				}
				JOINT mixamorig:RightShoulder
				{
					OFFSET -12.001300 18.284088 1.348900
					CHANNELS 3 Xrotation Yrotation Zrotation
					JOINT mixamorig:RightArm
					{
						OFFSET -25.308500 -0.751312 -5.164599
						CHANNELS 3 Xrotation Yrotation Zrotation
						JOINT mixamorig:RightForeArm
						{
							OFFSET -54.684429 0.000000 0.000000
							CHANNELS 3 Xrotation Yrotation Zrotation
							JOINT mixamorig:RightHand
							{
								OFFSET -55.150291 0.000000 0.000000
								CHANNELS 3 Xrotation Yrotation Zrotation
								JOINT mixamorig:RightHandMiddle1
								{
									OFFSET -23.317566 0.000000 0.000000
									CHANNELS 3 Xrotation Yrotation Zrotation
									JOINT mixamorig:RightHandMiddle2
									{
										OFFSET -6.378403 0.000000 0.000000
										CHANNELS 3 Xrotation Yrotation Zrotation
										JOINT mixamorig:RightHandMiddle3
										{
											OFFSET -6.148193 0.000000 0.000000
											CHANNELS 3 Xrotation Yrotation Zrotation
											JOINT mixamorig:RightHandMiddle4
											{
												OFFSET -6.583389 0.000000 0.000000
												CHANNELS 3 Xrotation Yrotation Zrotation
												End Site
												{
													OFFSET 1.171692 6.395905 1.029786
												}
											}
										}
									}
								}
								JOINT mixamorig:RightHandThumb1
								{
									OFFSET -7.190521 -3.860474 5.435846
									CHANNELS 3 Xrotation Yrotation Zrotation
									JOINT mixamorig:RightHandThumb2
									{
										OFFSET -6.567429 -3.791718 3.791708
										CHANNELS 3 Xrotation Yrotation Zrotation
										JOINT mixamorig:RightHandThumb3
										{
											OFFSET -6.062469 -3.500153 3.500166
											CHANNELS 3 Xrotation Yrotation Zrotation
											JOINT mixamorig:RightHandThumb4
											{
												OFFSET -4.792618 -2.767029 2.767022
												CHANNELS 3 Xrotation Yrotation Zrotation
												End Site
												{
													OFFSET -0.100327 6.053253 1.276754
												}
											}
										}
									}
								}
								JOINT mixamorig:RightHandIndex1
								{
									OFFSET -23.048981 -0.310791 4.992554
									CHANNELS 3 Xrotation Yrotation Zrotation
									JOINT mixamorig:RightHandIndex2
									{
										OFFSET -6.227539 0.000000 0.000000
										CHANNELS 3 Xrotation Yrotation Zrotation
										JOINT mixamorig:RightHandIndex3
										{
											OFFSET -6.095047 0.000000 0.000000
											CHANNELS 3 Xrotation Yrotation Zrotation
											JOINT mixamorig:RightHandIndex4
											{
												OFFSET -5.484772 0.000000 0.000000
												CHANNELS 3 Xrotation Yrotation Zrotation
												End Site
												{
													OFFSET 1.420593 5.237305 0.797056
												}
											}
										}
									}
								}
								JOINT mixamorig:RightHandRing1
								{
									OFFSET -22.246323 0.020569 -3.963762
									CHANNELS 3 Xrotation Yrotation Zrotation
									JOINT mixamorig:RightHandRing2
									{
										OFFSET -6.322128 0.000000 0.000000
										CHANNELS 3 Xrotation Yrotation Zrotation
										JOINT mixamorig:RightHandRing3
										{
											OFFSET -5.900024 0.000000 0.000000
											CHANNELS 3 Xrotation Yrotation Zrotation
											JOINT mixamorig:RightHandRing4
											{
												OFFSET -6.518356 0.000000 0.000000
												CHANNELS 3 Xrotation Yrotation Zrotation
												End Site
												{
													OFFSET 1.636398 6.232697 0.982186
												}
											}
										}
									}
								}
								JOINT mixamorig:RightHandPinky1
								{
									OFFSET -20.411011 -0.303314 -8.561701
									CHANNELS 3 Xrotation Yrotation Zrotation
									JOINT mixamorig:RightHandPinky2
									{
										OFFSET -6.907349 0.000000 0.000000
										CHANNELS 3 Xrotation Yrotation Zrotation
										JOINT mixamorig:RightHandPinky3
										{
											OFFSET -4.623840 0.000000 0.000000
											CHANNELS 3 Xrotation Yrotation Zrotation
											JOINT mixamorig:RightHandPinky4
											{
												OFFSET -5.218353 0.000000 0.000000
												CHANNELS 3 Xrotation Yrotation Zrotation
												End Site
												{
													OFFSET 0.602097 5.118835 0.816273
												}
											}
										}
									}
								}
							}
						}
					}
				}
			}
		}
	}
	JOINT mixamorig:LeftUpLeg
	{
		OFFSET 18.168400 -13.561905 -0.039000
		CHANNELS 3 Xrotation Yrotation Zrotation
		JOINT mixamorig:LeftLeg
		{
			OFFSET 0.577358 -80.825211 -3.695000
			CHANNELS 3 Xrotation Yrotation Zrotation
			JOINT mixamorig:LeftFoot
			{
				OFFSET -0.577356 -83.370262 -6.520700
				CHANNELS 3 Xrotation Yrotation Zrotation
				JOINT mixamorig:LeftToeBase
				{
					OFFSET 0.750401 -20.798306 25.135401
					CHANNELS 3 Xrotation Yrotation Zrotation
					JOINT mixamorig:LeftToe_End
					{
						OFFSET -0.000500 0.001200 19.917799
						CHANNELS 3 Xrotation Yrotation Zrotation
						End Site
						{
							OFFSET 0.000000 19.917805 0.000000
						}
					}
				}
			}
		}
	}
	JOINT mixamorig:RightUpLeg
	{
		OFFSET -18.162500 -13.585098 -0.041000
		CHANNELS 3 Xrotation Yrotation Zrotation
		JOINT mixamorig:RightLeg
		{
			OFFSET -0.595024 -80.945297 -3.631900
			CHANNELS 3 Xrotation Yrotation Zrotation
			JOINT mixamorig:RightFoot
			{
				OFFSET 0.595024 -83.218193 -6.561200
				CHANNELS 3 Xrotation Yrotation Zrotation
				JOINT mixamorig:RightToeBase
				{
					OFFSET -0.753601 -20.807106 25.115000
					CHANNELS 3 Xrotation Yrotation Zrotation
					JOINT mixamorig:RightToe_End
					{
						OFFSET 0.000299 0.001700 19.918200
						CHANNELS 3 Xrotation Yrotation Zrotation
						End Site
						{
							OFFSET 0.000000 19.918203 0.000000
						}
					}
				}
			}
		}
	}
}
MOTION
Frames: 4
Frame Time: 0.033333
4.507985 191.444244 49.813217 45.441003 3.580936 -2.391635 13.867259 4.403490 -1.028942 10.209129 1.395590 2.179980 10.165172 1.511985 2.302352 -10.356321 -3.066939 2.492053 -70.028837 -7.637540 -2.216320 -0.000000 -0.000000 0.000000 -0.000000 -0.000000 0.000000 -0.000000 -0.000000 0.000000 0.650247 -3.823496 -3.436479 46.836817 -39.134303 -38.261180 0.000049 -73.041503 0.000034 41.621998 -22.208278 80.182254 1.069377 11.893240 -8.370640 0.065472 1.542502 -7.206242 0.168902 1.482113 -12.194512 0.000001 -0.000001 0.000000 -16.683188 -38.005638 13.669509 -8.879132 8.347234 30.242657 2.805647 12.198692 0.118620 0.000003 -0.000000 -0.000001 0.339569 4.671346 -7.844267 0.387036 2.823573 -20.566217 0.034625 0.816838 -10.169820 0.000000 -0.000003 -0.000003 -1.457587 16.333412 6.583040 1.823264 3.992978 -41.768219 0.123382 0.541710 -5.602765 -0.000004 0.000001 0.000001 -0.682715 24.719518 2.347109 2.984890 5.369437 -66.298720 1.824922 4.714391 -43.499392 -0.000001 -0.000001 -0.000000 -1.090755 -6.775481 -9.357753 -94.369718 44.453344 11.175759 -0.000004 71.224038 0.000005 44.095770 -27.684374 -34.855207 1.489944 -9.150812 46.924861 7.332864 -6.416769 107.260710 3.327964 -5.306968 65.243907 0.000000 0.000001 0.000001 -19.587972 13.666286 21.246815 -10.629581 -8.106071 3.378133 -16.076117 15.569531 17.466332 -0.000001 0.000003 0.000002 0.242977 -5.829364 11.190577 0.018123 -0.782998 0.000051 0.790289 3.291716 -21.611089 -0.000001 -0.000001 0.000000 2.623524 -10.069641 51.286760 7.428194 -5.225495 102.138990 2.019949 -4.025006 63.972665 0.000001 0.000001 -0.000001 2.285991 -9.865489 51.785975 6.586802 -6.002945 103.407951 0.697549 -4.550812 63.054373 -0.000002 -0.000001 0.000001 -74.760006 2.649199 -3.566074 21.701435 5.586137 -1.546222 15.287463 1.166433 5.703511 -11.320759 0.000002 -0.000000 0.000000 -0.000000 0.000000 -71.759607 0.233969 0.415932 16.874028 7.507042 -0.057668 9.684722 0.011500 -2.186821 -1.388542 0.000000 0.000000 -0.000000 0.000001 -0.000000 
4.574954 191.437103 49.521286 44.702775 3.634960 -2.550741 13.817361 4.432111 -1.069330 10.064805 1.403532 2.211731 10.020028 1.523385 2.332004 -10.133463 -3.059449 2.584653 -69.330805 -7.510995 -2.175091 0.000000 -0.000000 0.000000 0.000000 -0.000000 0.000000 0.000000 -0.000000 0.000000 0.648751 -3.775763 -3.318477 46.875462 -39.231965 -38.448467 0.000017 -73.054255 0.000006 41.552870 -22.261654 79.942672 1.069372 11.893198 -8.370737 0.065478 1.542528 -7.206488 0.168901 1.482106 -12.194504 0.000004 -0.000001 -0.000002 -16.601219 -37.980763 13.611173 -8.889017 8.348866 30.103331 2.797156 12.163715 0.112827 0.000001 -0.000001 -0.000000 0.339570 4.671352 -7.844272 0.387044 2.823572 -20.566219 0.034627 0.816832 -10.169816 -0.000003 -0.000003 -0.000000 -1.457511 16.333390 6.582680 1.823248 3.992974 -41.768174 0.123391 0.541719 -5.602908 -0.000002 -0.000001 -0.000001 -0.682575 24.719476 2.346648 2.984869 5.369429 -66.298488 1.824905 4.714374 -43.499112 -0.000001 0.000004 0.000000 -0.974562 -6.382016 -8.805652 -93.174449 44.781387 11.082035 0.000009 71.092181 -0.000013 43.824420 -27.350297 -34.751637 1.496164 -9.157235 46.957096 7.339962 -6.414696 107.334907 3.331805 -5.308729 65.286268 0.000000 -0.000000 -0.000000 -19.522820 13.729987 21.205528 -10.696128 -8.234486 3.484411 -16.031583 15.533763 17.432205 0.000000 -0.000003 -0.000000 0.243676 -5.827823 11.198488 0.018135 -0.782925 -0.000010 0.790354 3.291848 -21.612361 0.000001 0.000004 -0.000001 2.633694 -10.077909 51.338823 7.438435 -5.222230 102.246989 2.024015 -4.028248 64.023659 -0.000001 0.000001 0.000001 2.305645 -9.882923 51.865281 6.598720 -6.001151 103.528121 0.702181 -4.556597 63.120141 -0.000002 0.000001 -0.000000 -74.293238 2.639963 -3.559334 22.068121 5.435046 -1.431844 15.193607 1.160669 5.684083 -11.320775 -0.000004 -0.000002 -0.000000 -0.000001 -0.000000 -71.194060 0.263139 0.558837 17.139672 7.197346 -0.197347 9.589502 0.090188 -2.093775 -1.383962 0.000008 -0.000001 0.000000 -0.000000 0.000000 
4.676399 191.478928 49.275047 43.590346 3.658791 -2.689752 13.724564 4.479586 -1.118469 9.882572 1.413120 2.252256 9.836821 1.536702 2.370107 -9.877289 -3.063346 2.647167 -68.226363 -7.456460 -2.157011 0.000000 -0.000000 0.000000 0.000000 -0.000000 0.000000 0.000000 -0.000000 0.000000 0.642745 -3.608775 -3.250530 47.104458 -39.389858 -38.403910 0.000007 -73.113582 -0.000001 41.388648 -22.310963 79.622035 1.069383 11.893079 -8.370999 0.065484 1.542643 -7.207481 0.168892 1.482090 -12.194521 0.000002 -0.000001 0.000002 -16.485659 -37.958513 13.506753 -8.905929 8.341304 29.901865 2.783694 12.103069 0.103770 0.000004 0.000003 0.000002 0.339565 4.671349 -7.844269 0.387036 2.823569 -20.566217 0.034629 0.816835 -10.169819 -0.000004 0.000001 -0.000003 -1.457229 16.333282 6.581373 1.823241 3.992975 -41.768113 0.123406 0.541786 -5.603404 -0.000006 0.000001 0.000000 -0.682048 24.719295 2.345044 2.984799 5.369384 -66.297682 1.824834 4.714308 -43.498237 0.000002 -0.000004 0.000001 -0.824505 -5.853433 -8.068913 -91.313236 45.231408 10.682775 -0.000003 70.787322 -0.000003 43.396437 -26.940143 -34.640158 1.504815 -9.165999 46.994287 7.347847 -6.412398 107.417600 3.336132 -5.310721 65.334209 0.000001 0.000003 -0.000002 -19.416326 13.818633 21.136820 -10.790789 -8.420442 3.627367 -15.958578 15.475335 17.375130 0.000002 0.000001 -0.000000 0.244788 -5.825539 11.211257 0.018136 -0.783101 -0.000010 0.790170 3.291558 -21.609195 0.000001 0.000000 -0.000000 2.648297 -10.089819 51.406077 7.451138 -5.218113 102.381093 2.028891 -4.032156 64.084851 -0.000001 0.000002 0.000000 2.335257 -9.907512 51.974085 6.613839 -5.998857 103.680605 0.708147 -4.563920 63.203763 -0.000001 -0.000001 0.000002 -73.495677 2.699357 -3.490209 22.600703 5.245973 -1.334869 14.976320 1.137828 5.689127 -11.320803 0.000002 0.000000 0.000000 -0.000000 0.000000 -70.261692 0.274307 0.748769 17.488542 6.997795 -0.363233 9.403851 0.100011 -1.980901 -1.379468 0.000004 0.000001 0.000000 0.000001 -0.000000 
4.855690 191.600067 49.155396 41.951695 3.600356 -2.779883 13.619373 4.578173 -1.150799 9.660521 1.423260 2.283707 9.613998 1.548624 2.399538 -9.581449 -3.072062 2.618571 -66.551321 -7.564207 -2.130368 0.000000 -0.000000 -0.000000 0.000000 -0.000000 -0.000000 0.000000 -0.000000 -0.000000 0.632964 -3.354988 -3.229430 47.513333 -39.557724 -38.139104 -0.000014 -73.226793 -0.000007 41.162405 -22.372104 79.214854 1.069389 11.893066 -8.371029 0.065472 1.542637 -7.207589 0.168894 1.482099 -12.194505 0.000001 0.000001 -0.000002 -16.332488 -37.932630 13.363215 -8.928013 8.328618 29.632608 2.765397 12.019498 0.091480 0.000000 0.000000 0.000002 0.339564 4.671348 -7.844273 0.387039 2.823574 -20.566217 0.034627 0.816838 -10.169816 0.000000 -0.000002 0.000002 -1.457192 16.333277 6.581267 1.823232 3.992966 -41.768092 0.123419 0.541778 -5.603440 -0.000003 -0.000001 -0.000003 -0.682026 24.719213 2.344926 2.984790 5.369381 -66.297580 1.824828 4.714311 -43.498125 0.000000 0.000002 0.000001 -0.648359 -5.083380 -7.344245 -88.629122 45.674452 10.168938 0.000009 70.264868 -0.000007 42.919112 -26.441337 -34.681115 1.516688 -9.178118 47.049191 7.359750 -6.408946 107.542080 3.342758 -5.313722 65.407032 0.000001 -0.000001 0.000001 -19.276534 13.938620 21.046343 -10.911751 -8.672736 3.821417 -15.867255 15.396640 17.298692 0.000002 0.000000 -0.000001 0.246288 -5.822663 11.229768 0.018126 -0.783448 -0.000057 0.789906 3.291120 -21.604211 0.000002 0.000002 0.000001 2.668161 -10.105914 51.500962 7.469384 -5.212193 102.573889 2.036165 -4.037915 64.175167 -0.000001 -0.000000 0.000001 2.376554 -9.937417 52.124541 6.635365 -5.995467 103.897942 0.716702 -4.574454 63.323886 -0.000003 -0.000001 0.000002 -72.225023 2.805450 -3.378853 23.386648 5.115620 -1.162856 14.540006 1.072104 5.669423 -11.320780 -0.000002 -0.000001 0.000000 -0.000001 0.000000 -68.809368 0.222219 1.000088 17.981887 7.031437 -0.535836 9.087404 -0.015417 -1.861963 -1.389842 -0.000007 0.000001 0.000000 0.000001 0.000000 
